<svg xmlns="http://www.w3.org/2000/svg"
    width="37"
    height="40"
    viewBox="0 310 1000 400"
    version="1.1">
    <path d="M 441.163 288.704 C 439.877 288.956, 436.656 291.263, 434.004 293.831 C 429.711 297.989, 429.114 299.101, 428.545 304 C 428.194 307.025, 428.041 404, 428.204 519.500 C 428.483 717.241, 428.602 729.687, 430.249 732.698 C 431.211 734.457, 433.651 737.157, 435.671 738.698 L 439.344 741.500 512 741.500 L 584.656 741.500 588.329 738.698 C 590.349 737.157, 592.789 734.457, 593.751 732.698 C 595.401 729.681, 595.500 717.375, 595.500 515.500 C 595.500 303.298, 595.483 301.471, 593.500 298.106 C 592.400 296.239, 589.771 293.314, 587.658 291.606 L 583.815 288.500 513.658 288.373 C 475.071 288.303, 442.448 288.452, 441.163 288.704 M 696.361 858.055 C 689.546 858.983, 681.325 863.575, 677.817 868.414 C 669.690 879.626, 670.328 895.976, 679.272 905.679 C 686.020 913, 689.801 914.500, 701.500 914.500 C 709.906 914.500, 712.159 914.147, 715.634 912.289 C 724.840 907.365, 730.022 899.366, 730.772 888.925 C 732.234 868.559, 717.341 855.200, 696.361 858.055 M 851.326 858.045 C 839.933 860.297, 833.757 868.553, 836.006 878.525 C 837.700 886.039, 841.811 889.517, 853.297 893.155 C 860.188 895.338, 863.068 897.902, 860.729 899.773 C 858.350 901.675, 855.440 901.966, 849.500 900.895 C 839.473 899.087, 839.921 898.933, 837.882 904.875 C 836.867 907.832, 836.273 910.632, 836.561 911.099 C 837.692 912.929, 847.764 914.999, 855.432 914.978 C 869.888 914.939, 878 908.621, 878 897.403 C 878 888.980, 872.153 882.518, 861.343 878.994 C 853.071 876.297, 851.104 874.785, 852.958 872.550 C 854.593 870.581, 860.217 870.555, 866.591 872.489 C 869.291 873.308, 871.576 873.983, 871.670 873.989 C 871.763 873.995, 872.616 871.638, 873.565 868.750 C 874.515 865.862, 875.473 863.006, 875.694 862.402 C 876.658 859.775, 858.763 856.575, 851.326 858.045 M 66 886.500 L 66 914 75.500 914 L 85 914 85 902.934 L 85 891.867 87.600 892.184 C 89.759 892.446, 91.187 894.284, 96.006 903 L 101.811 913.500 111.905 913.785 C 120.284 914.022, 122 913.818, 122 912.588 C 122 911.774, 118.609 905.481, 114.465 898.605 L 106.931 886.102 113.465 873.989 C 117.059 867.327, 120 861.229, 120 860.438 C 120 859.288, 118.088 859, 110.441 859 L 100.882 859 95.778 870 C 91.038 880.216, 90.472 881, 87.837 881 L 85 881 85 870 L 85 859 75.500 859 L 66 859 66 886.500 M 123 886.500 L 123 914 132.500 914 L 142 914 142 886.500 L 142 859 132.500 859 L 123 859 123 886.500 M 146 865 L 146 871 151.500 871 L 157 871 157 892.500 L 157 914 166.500 914 L 176 914 176 892.500 L 176 871 182 871 L 188 871 188 865 L 188 859 167 859 L 146 859 146 865 M 196.135 877.750 C 193.295 888.063, 189.878 900.454, 188.542 905.287 L 186.113 914.074 195.255 913.787 L 204.397 913.500 205.453 908.500 L 206.508 903.500 213.686 903.208 L 220.865 902.915 221.521 907.292 C 222.536 914.060, 222.627 914.113, 232.708 913.790 L 241.749 913.500 235.532 892 C 232.112 880.175, 228.556 867.913, 227.629 864.750 L 225.944 859 213.622 859 L 201.300 859 196.135 877.750 M 265 886.461 L 265 914 273.473 914 L 281.945 914 282.223 899.750 L 282.500 885.500 287.351 894.750 C 292.002 903.617, 292.342 904, 295.560 904 C 298.766 904, 299.145 903.582, 303.943 894.750 L 308.968 885.500 308.984 899.750 L 309 914 317.500 914 L 326 914 326 886.500 L 326 859 317.507 859 L 309.014 859 302.421 872.157 L 295.828 885.314 289.069 872.407 L 282.309 859.500 273.654 859.211 L 265 858.922 265 886.461 M 333 886.500 L 333 914 352.500 914 L 372 914 372 908 L 372 902 362 902 L 352 902 352 896.500 L 352 891 361 891 L 370 891 370 886 L 370 881 361 881 L 352 881 352 876 L 352 871 362 871 L 372 871 372 865 L 372 859 352.500 859 L 333 859 333 886.500 M 376 886.500 L 376 914 390.818 914 C 407.759 914, 413.533 912.763, 420.151 907.715 C 422.490 905.932, 425.536 902.256, 426.945 899.517 C 429.101 895.328, 429.498 893.223, 429.488 886.027 C 429.474 875.967, 427.513 871.307, 420.918 865.662 C 414.315 860.010, 409.904 859, 391.822 859 L 376 859 376 886.500 M 434 886.500 L 434 914 443.500 914 L 453 914 453 886.500 L 453 859 443.500 859 L 434 859 434 886.500 M 464.135 877.750 C 461.295 888.063, 457.878 900.454, 456.542 905.287 L 454.113 914.074 463.255 913.787 L 472.397 913.500 473.453 908.500 L 474.508 903.500 481.686 903.208 L 488.865 902.915 489.521 907.292 C 490.536 914.060, 490.627 914.113, 500.708 913.790 L 509.749 913.500 503.532 892 C 500.112 880.175, 496.556 867.913, 495.629 864.750 L 493.944 859 481.622 859 L 469.300 859 464.135 877.750 M 533 886.500 L 533 914 542.500 914 L 552 914 552 886.500 L 552 859 542.500 859 L 533 859 533 886.500 M 558 886.500 L 558 914 565.472 914 L 572.944 914 573.222 900.250 L 573.500 886.500 584 900.216 L 594.500 913.932 602.750 913.966 L 611 914 611 886.500 L 611 859 603.527 859 L 596.055 859 595.777 873.166 L 595.500 887.333 585.120 873.166 L 574.739 859 566.370 859 L 558 859 558 886.500 M 617 886.502 L 617 914.169 633.750 913.827 C 648.147 913.534, 651.134 913.194, 655.011 911.405 C 667.340 905.717, 673.601 891.404, 669.656 877.925 C 667.644 871.049, 663.656 866.233, 656.856 862.466 C 651.587 859.548, 651.218 859.495, 634.250 859.167 L 617 858.835 617 886.502 M 735 886.500 L 735 914 741.973 914 L 748.945 914 749.223 899.750 L 749.500 885.500 760.475 899.750 L 771.449 914 779.725 914 L 788 914 788 886.500 L 788 859 780.527 859 L 773.053 859 772.777 873.356 L 772.500 887.711 762 873.357 L 751.500 859.003 743.250 859.001 L 735 859 735 886.500 M 794 886.500 L 794 914 813.500 914 L 833 914 833 908 L 833 902 823.500 902 L 814 902 814 896.500 L 814 891 822.500 891 L 831 891 831 886 L 831 881 822.500 881 L 814 881 814 876 L 814 871 823.500 871 L 833 871 833 865 L 833 859 813.500 859 L 794 859 794 886.500 M 881 886.500 L 881 914 890.500 914 L 900 914 900 886.500 L 900 859 890.500 859 L 881 859 881 886.500 M 916.501 860.250 C 915.681 862.598, 902 912.693, 902 913.347 C 902 913.706, 906.018 914, 910.929 914 L 919.858 914 921.009 908.458 L 922.159 902.916 929.330 903.208 L 936.500 903.500 937.391 908.750 L 938.281 914 947.641 914 C 952.788 914, 957 913.690, 957 913.311 C 957 912.931, 953.526 900.556, 949.280 885.811 L 941.560 859 929.248 859 C 920.299 859, 916.818 859.341, 916.501 860.250 M 211.160 880.749 C 209.966 886.112, 208.991 891.063, 208.994 891.750 C 208.998 892.585, 210.683 893, 214.067 893 C 218.429 893, 219.061 892.756, 218.603 891.250 C 218.311 890.288, 217.197 885.529, 216.128 880.675 C 215.059 875.822, 213.992 871.659, 213.757 871.424 C 213.523 871.190, 212.354 875.386, 211.160 880.749 M 479.160 880.749 C 477.966 886.112, 476.991 891.063, 476.994 891.750 C 476.998 892.585, 478.683 893, 482.067 893 C 486.429 893, 487.061 892.756, 486.603 891.250 C 486.311 890.288, 485.197 885.529, 484.128 880.675 C 483.059 875.822, 481.992 871.659, 481.757 871.424 C 481.523 871.190, 480.354 875.386, 479.160 880.749 M 928.712 872.500 C 928.027 874.779, 924 891.938, 924 892.579 C 924 892.811, 926.250 893, 929 893 C 931.750 893, 934 892.641, 934 892.203 C 934 891.375, 930.171 873.259, 929.624 871.500 C 929.453 870.950, 929.043 871.400, 928.712 872.500 M 694.780 874.328 C 691.482 877.384, 689.647 883.179, 690.259 888.604 C 690.897 894.269, 693.286 897.804, 697.731 899.661 C 704.528 902.501, 711.575 897.587, 712.696 889.227 C 713.521 883.078, 712.271 878.425, 708.885 875.039 C 704.934 871.087, 698.620 870.769, 694.780 874.328 M 394 885.893 C 394 900.289, 394.151 900.586, 400.884 899.408 C 408.128 898.141, 412 893.290, 412 885.482 C 412 877.718, 406.721 873, 398.032 873 L 394 873 394 885.893 M 635.221 886.250 L 635.500 899.500 639.500 899.273 C 641.700 899.148, 644.483 898.809, 645.684 898.520 C 648.789 897.774, 651.913 892.917, 652.623 887.731 C 653.821 878.994, 648.306 873, 639.070 873 L 634.942 873 635.221 886.250" stroke="none" fill="#ff3131" fill-rule="evenodd"/><path d="M 498 74.638 C 491.848 75.831, 480.550 79.309, 475.333 81.616 C 453.572 91.240, 435.800 112.021, 428.395 136.500 C 425.992 144.447, 425.666 147.197, 425.610 160 C 425.536 177.080, 427.482 185.691, 434.540 199.524 C 443.973 218.010, 456.846 230.359, 476.228 239.512 C 488.492 245.304, 494.556 246.486, 512 246.486 C 529.444 246.486, 535.508 245.304, 547.772 239.512 C 568.954 229.508, 584.964 212.682, 592.914 192.068 C 609.116 150.054, 590.255 101.339, 550.512 82.550 C 537.927 76.601, 530.062 74.837, 514.500 74.477 C 506.800 74.299, 499.375 74.371, 498 74.638 M 82.071 298.752 C 80.185 299.713, 77.710 301.771, 76.571 303.324 C 74.532 306.103, 74.500 307.057, 74.500 364.324 L 74.500 422.500 77.466 427.855 C 79.098 430.801, 82.399 434.942, 84.803 437.058 C 87.207 439.174, 115.347 457.190, 147.337 477.094 C 179.327 496.998, 206.057 513.792, 206.737 514.414 C 207.684 515.280, 194.780 523.850, 151.737 550.937 C 120.807 570.402, 92.575 588.200, 89 590.488 C 82.258 594.802, 77.775 600.163, 75.444 606.698 C 73.382 612.479, 73.378 720.576, 75.440 725.510 C 78.143 731.980, 87.285 734.973, 93.898 731.553 C 102.174 727.273, 358.270 553.406, 363.049 548.822 C 371.984 540.254, 372.449 538.700, 372.810 516.220 C 373.108 497.648, 373.031 496.748, 370.716 491.691 C 369.394 488.803, 366.105 484.320, 363.406 481.728 C 357.007 475.582, 95.637 299.272, 91.025 297.991 C 86.357 296.694, 86.057 296.719, 82.071 298.752 M 932.500 298.020 C 928.085 299.361, 666.357 476.193, 660.594 481.728 C 657.895 484.320, 654.606 488.803, 653.284 491.691 C 650.969 496.748, 650.892 497.648, 651.190 516.220 C 651.551 538.700, 652.016 540.254, 660.951 548.822 C 665.730 553.406, 921.826 727.273, 930.102 731.553 C 936.686 734.957, 945.246 732.217, 948.330 725.717 C 949.827 722.562, 950 716.507, 950 667.258 C 950 606.905, 950.010 607.018, 943.942 598.569 C 941.245 594.814, 936.296 591.242, 917.068 579.178 C 826.873 522.587, 816.025 515.548, 817.255 514.422 C 817.940 513.795, 844.825 496.913, 877 476.906 C 936.898 439.661, 942.462 435.694, 947.159 426.889 L 949.500 422.500 949.766 365.500 C 950.012 312.674, 949.902 308.249, 948.266 305.071 C 945.082 298.888, 938.836 296.094, 932.500 298.020" stroke="none" fill="#044cac" fill-rule="evenodd"/></svg>