<svg xmlns="http://www.w3.org/2000/svg"
    width="500"
    height="500"
    viewBox="0 0 500 500"
    version="1.1">
    <path d="M 206.196 290.658 C 206.500 321.500, 206.500 321.500, 209.425 327.500 C 214.978 338.890, 227.815 348.738, 242.045 352.525 C 249.160 354.418, 266.861 354.412, 273.992 352.515 C 287.935 348.805, 301.211 338.192, 306.780 326.305 C 309.500 320.500, 309.500 320.500, 309.817 290.144 C 310.005 272.053, 309.764 259.933, 309.218 260.144 C 308.715 260.340, 301.626 268.600, 293.465 278.500 C 268.669 308.580, 260.384 318.444, 258.840 319.721 C 257.599 320.748, 253.409 316.166, 232.496 290.915 C 218.818 274.400, 207.237 260.646, 206.760 260.352 C 206.274 260.052, 206.026 273.403, 206.196 290.658"
        stroke="none"
        fill="#05aceb"
        fill-rule="evenodd"
        opacity="0.5"/>
    <path d="M 245 109.566 C 243.625 109.808, 239.125 110.503, 235 111.110 C 212.123 114.478, 186.032 127.630, 167.580 145.096 C 122.975 187.319, 113.373 253.181, 144.031 306.626 C 147.780 313.163, 157.477 326.999, 158.308 327 C 158.414 327, 158.500 298.763, 158.500 264.250 C 158.500 201.500, 158.500 201.500, 161.161 196.500 C 170.722 178.532, 194.931 174.217, 208.769 188.014 C 210.566 189.807, 221.366 202.521, 232.769 216.268 C 244.171 230.015, 254.479 242.441, 255.675 243.881 C 257.088 245.582, 258.175 246.149, 258.777 245.500 C 259.286 244.950, 267.501 235.050, 277.032 223.500 C 308.497 185.371, 307.584 186.364, 314.233 183.042 C 329.564 175.381, 348.050 182.076, 355.394 197.949 C 357.464 202.422, 357.500 203.566, 357.500 264.750 C 357.500 298.988, 357.570 327, 357.655 327 C 357.741 327, 360.151 323.843, 363.011 319.985 C 373.839 305.378, 381.687 288.700, 386.060 271 C 389.069 258.818, 389.861 231.151, 387.576 218.039 C 382.969 191.605, 370.299 167.331, 351 147.969 C 326.554 123.442, 296.698 110.552, 262 109.547 C 254.025 109.315, 246.375 109.324, 245 109.566 M 233.571 181.571 C 230.277 184.866, 231.684 187.770, 244.689 204.531 C 251.669 213.525, 257.746 220.657, 258.195 220.379 C 260.808 218.765, 284 187.464, 284 185.553 C 284 184.319, 283.177 182.565, 282.171 181.655 C 280.583 180.218, 277.369 180, 257.743 180 C 238.531 180, 234.907 180.236, 233.571 181.571"
        stroke="none"
        fill="#ea2c3c"
        fill-rule="evenodd"
        opacity="0.5"/>
</svg>